<svg xmlns="http://www.w3.org/2000/svg" width="16" height="16"><g transform="translate(0 0)"><g class="nc-icon-wrapper" fill="#111111"><path fill="#111111" d="M11,4L1,4.019c-0.552,0-1-0.448-1-1v0c0-0.552,0.448-1,1-1L11,2V4z"></path> <path fill="#111111" d="M15,9H5V7h10c0.552,0,1,0.448,1,1v0C16,8.552,15.552,9,15,9z"></path> <path data-color="color-2" d="M15,4.019L13,4V2l2,0.019c0.552,0,1,0.448,1,1v0C16,3.572,15.552,4.019,15,4.019z"></path> <path fill="#111111" d="M11,14H1c-0.552,0-1-0.448-1-1v0c0-0.552,0.448-1,1-1h10V14z"></path> <path data-color="color-2" d="M15,14h-2v-2h2c0.552,0,1,0.448,1,1v0C16,13.552,15.552,14,15,14z"></path> <path data-color="color-2" d="M3,9H1C0.448,9,0,8.552,0,8v0c0-0.552,0.448-1,1-1h2V9z"></path></g></g></svg>
