<svg xmlns="http://www.w3.org/2000/svg" width="16" height="16"><g transform="translate(0 0)"><g class="nc-icon-wrapper" fill="#111111"><path fill="#111111" d="M15,4H1C0.4,4,0,4.4,0,5v10c0,0.6,0.4,1,1,1h14c0.6,0,1-0.4,1-1V5C16,4.4,15.6,4,15,4z M11.1,14H4.9 c-0.4-1.4-1.5-2.5-2.9-2.9V8.9C3.4,8.5,4.5,7.4,4.9,6h6.3c0.4,1.4,1.5,2.5,2.9,2.9v2.3C12.6,11.5,11.5,12.6,11.1,14z"></path> <circle fill="#111111" cx="8" cy="10" r="2"></circle> <rect data-color="color-2" x="2" width="12" height="2"></rect></g></g></svg>