<svg version="1.1" xmlns="http://www.w3.org/2000/svg" xmlns:xlink="http://www.w3.org/1999/xlink" x="0px" y="0px" viewBox="0 0 16 16" xml:space="preserve" width="16" height="16"><g class="nc-icon-wrapper" fill="#111111"><path fill="#111111" d="M12.7,11.7l-1.4-1.4L13.6,8l-2.3-2.3l1.4-1.4l3,3c0.4,0.4,0.4,1,0,1.4L12.7,11.7z"></path> <path fill="#111111" d="M3.3,11.7l-3-3c-0.4-0.4-0.4-1,0-1.4l3-3l1.4,1.4L2.4,8l2.3,2.3L3.3,11.7z"></path> <path data-color="color-2" fill="#111111" d="M6,15c-0.1,0-0.2,0-0.3-0.1c-0.5-0.2-0.8-0.7-0.6-1.3l4-12c0.2-0.5,0.7-0.8,1.3-0.6 c0.5,0.2,0.8,0.7,0.6,1.3l-4,12C6.8,14.7,6.4,15,6,15z"></path></g></svg>