<svg xmlns="http://www.w3.org/2000/svg" width="16" height="16"><g transform="translate(0 0)"><g class="nc-icon-wrapper" fill="#111111"><path fill="#111111" d="M6.5,0C2.91,0,0,2.462,0,5.5c0,1.075,0.37,2.074,1,2.922V12l2.699-1.542C4.548,10.802,5.496,11,6.5,11 c3.59,0,6.5-2.462,6.5-5.5C13,2.462,10.09,0,6.5,0z"></path> <path data-color="color-2" d="M16,9.5c0-0.987-0.429-1.897-1.147-2.639C14.124,10.348,10.66,13,6.5,13 c-0.103,0-0.202-0.018-0.305-0.021C7.231,13.617,8.556,14,10,14c0.449,0,0.886-0.04,1.307-0.11L15,16v-4h-0.012 C15.627,11.285,16,10.425,16,9.5z"></path></g></g></svg>