<svg xmlns="http://www.w3.org/2000/svg" width="16" height="16"><g transform="translate(0 0)"><g class="nc-icon-wrapper" fill="#111111"><polygon data-color="color-2" points="16,11 14,11 14,9 12,9 12,11 10,11 10,13 12,13 12,15 14,15 14,13 16,13 "></polygon> <path fill="#111111" d="M8,12.247L2.715,7.251C1.758,6.274,1.763,4.701,2.732,3.732C3.204,3.26,3.832,3,4.5,3 c0.785,0,1.496,0.378,1.818,0.802C6.504,4.042,7.793,5.36,8,5.62c0.207-0.26,1.496-1.578,1.682-1.818C10.002,3.381,10.72,3,11.5,3 c0.668,0,1.296,0.26,1.768,0.732C14.159,4.624,14.225,6.021,13.486,7h2.242c0.56-1.584,0.221-3.415-1.046-4.682 C13.803,1.439,12.652,1,11.5,1S9.197,1.439,8.318,2.318C8.197,2.439,8.104,2.577,8,2.707C7.896,2.577,7.803,2.439,7.682,2.318 C6.803,1.439,5.652,1,4.5,1S2.197,1.439,1.318,2.318c-1.757,1.757-1.757,4.607,0,6.364L8,15V12.247z"></path> </g></g></svg>