<svg xmlns="http://www.w3.org/2000/svg" width="64" height="64"><g transform="translate(0 0)"><g class="nc-icon-wrapper" fill="#111111"><path fill="#111111" d="M33.401,5.031C24.843,4.652,16.739,7.697,10.57,13.6C4.399,19.505,1,27.46,1,36v1h25c1.654,0,3,1.346,3,3v2 c0,9.374,7.626,17,17,17s17-7.626,17-17v-5.059C63,19.779,49.999,5.763,33.401,5.031z M46,50c-2.209,0-4-1.791-4-4 c0-2.209,1.791-4,4-4s4,1.791,4,4C50,48.209,48.209,50,46,50z"></path> <path data-color="color-2" d="M27,42v-2c0-0.552-0.448-1-1-1H1v19c0,0.307,0.141,0.597,0.382,0.786 C1.561,58.926,1.778,59,2,59c0.079,0,0.158-0.01,0.236-0.028l27.77-6.755C28.113,49.263,27,45.762,27,42z"></path></g></g></svg>