<svg xmlns="http://www.w3.org/2000/svg" width="16" height="16"><g transform="translate(0 0)"><g class="nc-icon-wrapper" fill="#111111"><path fill="#111111" d="M12.8,1.2C12,0.4,10.7,0,9,0H4C3.6,0,3.4,0.3,3.3,0.6L1.2,13.7c0,0.3,0.2,0.5,0.4,0.5h3.1l0.7-4.7 c0.1-0.3,0.4-0.6,0.7-0.6h1.5c2.9,0,5.1-1.2,5.8-4.5C13.4,4.3,13.7,2.3,12.8,1.2z"></path> <path data-color="color-2" d="M14.3,4.8c-0.8,3.3-3,5.1-6.7,5.1H6.4L5.5,16h2c0.3,0,0.6-0.2,0.6-0.5l0.5-3.2l0-0.2c0.1-0.6,1-0.5,1-0.5 c2.5,0,4.5-1,5-4C14.9,6.5,14.8,5.5,14.3,4.8z"></path></g></g></svg>