<svg xmlns="http://www.w3.org/2000/svg" width="16" height="16"><g transform="translate(0 0)"><g class="nc-icon-wrapper" fill="#111111"><circle cx="8" cy="7" r="2" fill="#111111"></circle> <polygon id="color" points="14 10 12 10 12 12 10 12 10 14 12 14 12 16 14 16 14 14 16 14 16 12 14 12 14 10" data-color="color-2"></polygon> <path d="M4.559,10.621A4.955,4.955,0,0,1,3,7a5,5,0,1,1,9.9,1h2.022A6.954,6.954,0,0,0,8,0,7.008,7.008,0,0,0,1,7a6.934,6.934,0,0,0,2.1,4.99c.076.091,4.151,3.681,4.239,3.759A1,1,0,0,0,8,16V13.666l-3.4-3C4.589,10.649,4.574,10.635,4.559,10.621Z" fill="#111111"></path></g></g></svg>