<svg xmlns="http://www.w3.org/2000/svg" width="16" height="16"><g transform="translate(0 0)"><g class="nc-icon-wrapper" fill="#111111"><path fill="#111111" d="M11.6,4.2l-6-4C4.9-0.3,4,0.2,4,1v8c0,0.8,0.9,1.3,1.6,0.8l6-4C12.1,5.4,12.1,4.6,11.6,4.2z"></path> <rect data-color="color-2" x="13" y="12" width="3" height="2"></rect> <path data-color="color-2" d="M9,10c-1.3,0-2.4,0.8-2.8,2H0v2h6.2c0.4,1.2,1.5,2,2.8,2c1.7,0,3-1.3,3-3S10.7,10,9,10z M9,14c-0.6,0-1-0.4-1-1s0.4-1,1-1s1,0.4,1,1S9.6,14,9,14z"></path></g></g></svg>