<svg version="1.1" xmlns="http://www.w3.org/2000/svg" xmlns:xlink="http://www.w3.org/1999/xlink" x="0px" y="0px" viewBox="0 0 16 16" xml:space="preserve" width="16" height="16"><g class="nc-icon-wrapper" fill="#111111"><path fill="#111111" d="M8,3c1.179,0,2.311,0.423,3.205,1.17L8.883,6.492l6.211,0.539L14.555,0.82l-1.93,1.93 C11.353,1.632,9.71,1,8,1C4.567,1,1.664,3.454,1.097,6.834l1.973,0.331C3.474,4.752,5.548,3,8,3z"></path> <path fill="#111111" d="M8,13c-1.179,0-2.311-0.423-3.205-1.17l2.322-2.322L0.906,8.969l0.539,6.211l1.93-1.93 C4.647,14.368,6.29,15,8,15c3.433,0,6.336-2.454,6.903-5.834l-1.973-0.331C12.526,11.248,10.452,13,8,13z" data-color="color-2"></path> </g></svg>