<svg xmlns="http://www.w3.org/2000/svg" width="16" height="16"><g transform="translate(0 0)"><g class="nc-icon-wrapper" fill="#111111"><polygon data-color="color-2" fill="#111111" points="16,12 14,12 14,10 12,10 12,12 10,12 10,14 12,14 12,16 14,16 14,14 16,14 "></polygon> <path fill="#111111" d="M8,11.253l-0.93,0.489l-2.068,1.087l0.395-2.302l0.178-1.036L4.822,8.757l-1.673-1.63l2.312-0.336 L6.502,6.64l0.465-0.943l1.034-2.094l1.034,2.094L9.5,6.64l1.041,0.151l2.312,0.336L11.956,8h2.865l0.878-0.855 c0.594-0.58,0.263-1.587-0.555-1.706l-4.316-0.627L8.898,0.9C8.729,0.559,8.365,0.388,8.001,0.388S7.273,0.559,7.104,0.9 l-1.93,3.911L0.857,5.438C0.039,5.557-0.291,6.565,0.302,7.145l3.124,3.044l-0.737,4.299c-0.11,0.644,0.404,1.171,0.987,1.171 c0.153,0,0.311-0.036,0.464-0.116L8,13.513V11.253z"></path> </g></g></svg>