<svg xmlns="http://www.w3.org/2000/svg" width="16" height="16"><g transform="translate(0 0)"><g class="nc-icon-wrapper" fill="#111111"><path fill="#111111" d="M6,0H1C0.4,0,0,0.4,0,1v5c0,0.6,0.4,1,1,1h5c0.6,0,1-0.4,1-1V1C7,0.4,6.6,0,6,0z"></path> <path fill="#111111" d="M15,0h-5C9.4,0,9,0.4,9,1v5c0,0.6,0.4,1,1,1h5c0.6,0,1-0.4,1-1V1C16,0.4,15.6,0,15,0z"></path> <path fill="#111111" d="M6,9H1c-0.6,0-1,0.4-1,1v5c0,0.6,0.4,1,1,1h5c0.6,0,1-0.4,1-1v-5C7,9.4,6.6,9,6,9z"></path> <path fill="#111111" d="M15,9h-5c-0.6,0-1,0.4-1,1v5c0,0.6,0.4,1,1,1h5c0.6,0,1-0.4,1-1v-5C16,9.4,15.6,9,15,9z"></path></g></g></svg>