<svg xmlns="http://www.w3.org/2000/svg" width="16" height="16"><g transform="translate(0 0)"><g class="nc-icon-wrapper" fill="#111111"><path d="M15.275,10.293l-2.188-.625a1,1,0,0,1-.706-.767l-.134-.675A3,3,0,0,0,14,5.5V4.126A3.084,3.084,0,0,0,11.092,1,3,3,0,0,0,8.266,2.767,4.175,4.175,0,0,1,9,5.126V6.5a3.94,3.94,0,0,1-.155,1.075,3,3,0,0,0,.908.651L9.619,8.9a1,1,0,0,1-.706.767l-.843.241,1.48.423A2.007,2.007,0,0,1,11,12.254V14.5a1.483,1.483,0,0,1-.092.5H15.5a.5.5,0,0,0,.5-.5V11.254A1,1,0,0,0,15.275,10.293Z" data-color="color-2"></path> <path d="M9.275,11.293l-2.188-.625A1,1,0,0,1,6.381,9.9l-.134-.675A3,3,0,0,0,8,6.5V5.126A3.084,3.084,0,0,0,5.092,2,3,3,0,0,0,2,5V6.5A3,3,0,0,0,3.753,9.226L3.619,9.9a1,1,0,0,1-.706.767l-2.188.625A1,1,0,0,0,0,12.254V14.5a.5.5,0,0,0,.5.5h9a.5.5,0,0,0,.5-.5V12.254A1,1,0,0,0,9.275,11.293Z" fill="#111111"></path></g></g></svg>